<svg width="26" height="24" viewBox="0 0 26 24" fill="none" xmlns="http://www.w3.org/2000/svg">
<path fill-rule="evenodd" clip-rule="evenodd" d="M16.2417 0.0546875C15.1389 0.0546875 14.1052 0.261444 13.0944 0.651985C12.0835 0.238471 11.0727 0.0546875 9.94706 0.0546875C4.893 0.0546875 0.229492 4.90198 0.229492 11.4952C0.436249 18.5709 6.29436 24.1533 13.393 23.9466C20.17 23.7398 25.6376 18.2722 25.8444 11.4952C25.9592 4.90198 21.2957 0.0546875 16.2417 0.0546875ZM13.0944 4.00604C14.4038 4.92496 15.3227 6.53306 15.3227 8.16414C15.4146 9.38171 14.6106 10.5993 13.3011 10.6912C12.0835 10.7831 10.866 9.97901 10.7741 8.66955C10.7741 8.46279 10.7741 8.3709 10.7741 8.16414C10.866 6.44117 11.693 4.90198 13.0944 4.00604ZM13.0944 21.2128C7.71868 21.2128 3.37679 16.8709 3.37679 11.4952C3.37679 11.4952 3.37679 11.4952 3.37679 11.4033C3.37679 6.44117 7.02949 2.99523 9.85517 3.11009C8.43084 4.53442 7.71868 6.44117 7.62679 8.3709C7.42003 11.2885 9.64841 13.9304 12.589 14.1141C15.5295 14.3209 18.1484 12.0925 18.3552 9.15198C18.3552 8.85333 18.3552 8.64658 18.3552 8.34793C18.3552 6.4182 17.5511 4.60333 16.2187 3.17901C19.0673 3.08712 22.72 6.53306 22.72 11.4952C22.8119 16.756 18.47 21.2128 13.0944 21.2128Z" fill="#0072BC"/>
</svg>
